<svg width="24" height="20" fill="none" xmlns="http://www.w3.org/2000/svg"><path d="M8.34.046a4.934 4.934 0 0 0-1.52.471C5.374 1.226 4.39 2.51 4.075 4.1c-.073.368-.073 1.432 0 1.8A5.076 5.076 0 0 0 8.1 9.925c.368.073 1.432.073 1.8 0 1.823-.361 3.291-1.652 3.853-3.386.187-.578.227-.859.225-1.579-.002-.579-.015-.713-.109-1.091-.191-.765-.495-1.396-.943-1.957A5.04 5.04 0 0 0 8.34.046m6.129.011a.983.983 0 0 0-.708.96.88.88 0 0 0 .315.715c.235.212.315.236.904.27.632.037.816.079 1.28.296.657.308 1.131.78 1.444 1.442a2.873 2.873 0 0 1 0 2.52C17.185 7.357 16.162 8 14.936 8c-.438 0-.614.053-.844.255a.88.88 0 0 0-.331.725.974.974 0 0 0 .718.967c.267.078 1.057.055 1.515-.044 1.786-.386 3.206-1.657 3.759-3.364.187-.578.227-.859.225-1.579-.002-.579-.015-.713-.109-1.091-.386-1.547-1.333-2.709-2.765-3.393-.82-.391-2.025-.583-2.635-.419m-4.713 2.04c.337.092.839.35 1.117.574C11.554 3.219 12 4.14 12 5c0 1.17-.775 2.329-1.849 2.766-1.509.614-3.162-.032-3.853-1.506-.226-.481-.277-.714-.277-1.26s.051-.779.277-1.26a3.033 3.033 0 0 1 2.205-1.7c.267-.049.988-.016 1.253.057M4.34 12.046a4.934 4.934 0 0 0-1.52.471c-1.414.694-2.347 1.881-2.725 3.47-.083.348-.129 3.017-.057 3.284.063.234.271.488.493.603.505.26 1.112.07 1.355-.424.091-.185.095-.228.118-1.59.027-1.55.032-1.583.308-2.156a3.15 3.15 0 0 1 .768-1.002c.248-.213.908-.547 1.24-.628.177-.044 1.086-.054 4.68-.054 4.949 0 4.632-.017 5.26.278a2.905 2.905 0 0 1 1.444 1.442c.261.551.296.815.296 2.214 0 .694.018 1.248.042 1.335.099.358.48.664.875.702.437.042.883-.248 1.021-.665.061-.185.067-.363.052-1.637-.017-1.388-.02-1.441-.124-1.841-.26-1.011-.725-1.808-1.457-2.495a5.095 5.095 0 0 0-2.808-1.311c-.42-.052-8.854-.048-9.261.004m14.14-.009c-.863.263-.978 1.441-.18 1.853.125.064.275.089.68.113.634.037.818.079 1.28.295.657.308 1.131.78 1.444 1.442.261.551.296.815.296 2.214 0 .694.018 1.248.042 1.335.099.358.48.664.875.702.437.042.883-.248 1.021-.665.061-.185.067-.363.052-1.637-.017-1.388-.02-1.441-.124-1.841-.26-1.011-.725-1.808-1.457-2.495a5.095 5.095 0 0 0-2.808-1.311c-.386-.048-.972-.05-1.121-.005" fill="#6826F7" fill-rule="evenodd"/></svg>