<svg width="24" height="24" fill="none" xmlns="http://www.w3.org/2000/svg"><path d="M7.58 1.041a5.009 5.009 0 0 0-4.299 3.391c-.277.833-.261.358-.261 7.568 0 7.217-.017 6.734.264 7.576a5.012 5.012 0 0 0 3.148 3.143c.816.272.589.261 5.568.261 4.188 0 4.525-.005 4.86-.073 1.025-.206 1.845-.625 2.556-1.306.79-.756 1.268-1.636 1.491-2.741.068-.337.073-.701.073-5.7 0-4.403-.01-5.368-.055-5.5-.044-.13-.653-.76-3.2-3.311-2.276-2.281-3.195-3.176-3.325-3.24l-.18-.089-3.14-.005c-1.727-.003-3.302.009-3.5.026m5.431 3.689c.021 1.914.03 1.993.29 2.534a3.204 3.204 0 0 0 1.435 1.435c.541.26.62.269 2.534.29l1.73.019v4.698c0 5.295.017 4.979-.311 5.654-.158.326-.239.434-.567.762-.326.326-.438.41-.762.569-.658.324-.403.309-5.36.309-4.957 0-4.702.015-5.36-.309-.324-.159-.436-.243-.762-.569-.326-.326-.41-.438-.569-.762C4.979 18.689 5 19.192 5 12s-.021-6.689.309-7.36c.159-.324.243-.436.569-.762.325-.326.438-.41.762-.57.62-.305.549-.299 3.626-.304L12.992 3l.019 1.73m3.679 2.261c-1.027.013-1.13-.006-1.39-.259-.281-.273-.298-.353-.299-1.412L15 4.38l1.3 1.3 1.301 1.3-.911.011M8.8 12.043a1.02 1.02 0 0 0-.755.767.982.982 0 0 0 .802 1.151c.147.027 1.3.038 3.3.03 3.391-.012 3.195.003 3.503-.268a.976.976 0 0 0 0-1.446c-.309-.271-.105-.256-3.55-.263-1.716-.004-3.201.01-3.3.029m0 4c-.099.02-.251.086-.339.148a.974.974 0 0 0 .392 1.771c.147.027.808.038 1.8.031 1.545-.013 1.57-.014 1.755-.106a.964.964 0 0 0 .56-.887.964.964 0 0 0-.56-.887c-.186-.092-.201-.093-1.808-.1-.891-.004-1.701.01-1.8.03" fill-rule="evenodd" fill="#000"/></svg>