<svg width="22" height="20" fill="none" xmlns="http://www.w3.org/2000/svg"><path d="M7.342.037c-1.171.1-2.229.601-3.09 1.464a5.559 5.559 0 0 0-.591.699C3.454 2.515.793 7.286.523 7.828c-.344.69-.492 1.34-.492 2.164 0 .823.148 1.474.492 2.163.27.542 2.931 5.313 3.138 5.628.566.859 1.606 1.631 2.633 1.956.733.231.62.226 4.706.226 3.424 0 3.75-.005 4.07-.066a5.36 5.36 0 0 0 1.99-.821c.367-.242 1.03-.913 1.28-1.295.324-.493 3.126-5.558 3.276-5.921a4.95 4.95 0 0 0 0-3.74c-.15-.364-2.953-5.431-3.275-5.922-.251-.382-.914-1.052-1.281-1.295a5.376 5.376 0 0 0-1.257-.626c-.784-.263-.614-.253-4.565-.262-1.956-.005-3.709.004-3.896.02m7.288 1.981c.845.109 1.657.617 2.109 1.319.346.537 2.973 5.317 3.084 5.61.249.66.249 1.432 0 2.09-.105.277-2.627 4.87-3.053 5.559a3.026 3.026 0 0 1-2.14 1.369c-.365.048-6.895.048-7.26 0a2.992 2.992 0 0 1-2.121-1.351c-.231-.357-2.891-5.156-3.022-5.451-.161-.363-.221-.685-.221-1.171 0-.487.06-.808.221-1.172.132-.297 2.792-5.096 3.025-5.455.472-.73 1.261-1.238 2.087-1.346.336-.043 6.956-.044 7.291-.001M10.528 5.54a4.48 4.48 0 0 0-4.001 4.452c0 2.195 1.582 4.051 3.771 4.422.314.054 1.09.054 1.404 0 2.189-.371 3.771-2.227 3.771-4.422a4.461 4.461 0 0 0-2.034-3.749 4.561 4.561 0 0 0-2.911-.703m1.268 2.066a2.534 2.534 0 0 1 1.46 1.286c.189.393.244.642.244 1.1 0 .457-.055.707-.244 1.1a2.563 2.563 0 0 1-1.46 1.289c-.268.089-.355.1-.796.1-.441 0-.528-.011-.796-.1a2.563 2.563 0 0 1-1.46-1.289c-.189-.393-.244-.643-.244-1.1 0-.458.055-.707.244-1.1a2.529 2.529 0 0 1 1.782-1.374c.3-.064.936-.02 1.27.088" fill-rule="evenodd" fill="#000"/></svg>