<svg width="20" height="20" fill="none" xmlns="http://www.w3.org/2000/svg"><path d="M9.414.034a9.887 9.887 0 0 0-6.466 2.914C1.329 4.567.38 6.524.076 8.87c-.052.402-.058.845-.059 4.43 0 4.264-.003 4.188.168 4.679a2.992 2.992 0 0 0 2.213 1.94c.323.068.881.068 1.204 0a3.014 3.014 0 0 0 2.338-2.404c.033-.177.043-.768.043-2.515s-.01-2.338-.043-2.515c-.274-1.446-1.483-2.457-2.94-2.457-.332 0-.81.072-.941.143-.055.029-.059.005-.059-.345 0-.675.127-1.495.337-2.176a8 8 0 0 1 6.696-5.6 10.431 10.431 0 0 1 1.827-.016 8.015 8.015 0 0 1 6.502 4.801c.412.961.638 2.023.638 2.998 0 .343-.004.367-.059.338-.131-.071-.609-.143-.941-.143-1.457 0-2.666 1.011-2.94 2.457-.033.177-.043.768-.043 2.515 0 2.437.004 2.507.168 2.979a2.992 2.992 0 0 0 2.213 1.94c.323.068.881.068 1.204 0a3.014 3.014 0 0 0 2.338-2.404c.034-.183.043-1.061.043-4.215-.001-4.344.001-4.297-.199-5.282-.56-2.767-2.248-5.135-4.717-6.619C13.431.416 11.38-.079 9.414.034M3.45 12.091c.169.087.369.287.462.459.071.133.071.142.071 2.45 0 2.308 0 2.317-.071 2.45-.092.171-.292.37-.462.462-.193.103-.707.103-.9 0a1.303 1.303 0 0 1-.462-.462c-.071-.133-.071-.142-.071-2.45v-2.317l.074-.139c.125-.234.361-.434.609-.515.154-.05.605-.013.75.062m14 0c.169.087.369.287.462.459.071.133.071.142.071 2.45 0 2.308 0 2.317-.071 2.45-.092.171-.292.37-.462.462-.193.103-.707.103-.9 0a1.303 1.303 0 0 1-.462-.462c-.071-.133-.071-.142-.071-2.45v-2.317l.074-.139c.125-.234.361-.434.609-.515.154-.05.605-.013.75.062" fill-rule="evenodd" fill="#000"/></svg>